<?xml version="1.0" standalone="no"?>
<!DOCTYPE svg PUBLIC "-//W3C//DTD SVG 20010904//EN"
 "http://www.w3.org/TR/2001/REC-SVG-20010904/DTD/svg10.dtd">
<svg version="1.0" xmlns="http://www.w3.org/2000/svg"
 width="4753.000000pt" height="4136.000000pt" viewBox="0 0 4753.000000 4136.000000"
 preserveAspectRatio="xMidYMid meet">

<g transform="translate(0.000000,4136.000000) scale(0.100000,-0.100000)"
fill="#000000" stroke="none">
<path d="M44785 41340 c-130 -27 -956 -339 -1488 -564 -2806 -1184 -5880
-3047 -8737 -5295 -4544 -3574 -8601 -8190 -11877 -13511 -1258 -2044 -2410
-4200 -3460 -6475 -587 -1271 -1176 -2664 -1687 -3990 -74 -192 -139 -350
-145 -350 -5 0 -2625 2038 -5823 4528 -3197 2491 -5838 4544 -5869 4563 -58
36 -691 294 -897 365 -221 76 -317 99 -417 99 -51 0 -144 -9 -206 -20 -188
-32 -887 -138 -994 -150 -229 -26 -344 -66 -412 -144 -21 -24 -594 -952 -1273
-2062 -679 -1111 -1271 -2078 -1317 -2151 -145 -232 -180 -324 -170 -439 3
-33 51 -287 106 -565 202 -1016 563 -2862 617 -3154 98 -526 117 -594 191
-675 59 -66 134 -103 448 -220 2455 -918 5630 -2349 8125 -3663 4485 -2360
7866 -4703 10400 -7204 243 -239 256 -247 400 -248 86 0 101 3 160 31 72 34
122 78 149 133 10 20 43 137 74 261 326 1305 992 3486 1600 5235 3204 9217
7706 17320 12947 23305 665 760 1269 1407 1995 2139 2408 2427 4875 4388 7520
5976 630 379 1204 702 1497 843 353 170 441 253 532 504 19 51 195 507 391
1013 400 1029 385 979 331 1088 -38 78 -119 150 -198 176 -35 11 -553 146
-1153 301 -599 155 -1122 292 -1162 306 -73 24 -126 28 -198 14z"/>
</g>
</svg>
